<?xml version="1.0" encoding="UTF-8"?><svg id="Ebene_2" xmlns="http://www.w3.org/2000/svg" viewBox="0 0 126.58 138.54"><defs><style>.cls-1{fill:none;stroke:#fff;stroke-linecap:round;stroke-linejoin:round;stroke-width:9px;}</style></defs><g id="Ebene_3"><path class="cls-1" d="M122.08,32.3c-1.12-2.07-12.4-21.88-41.21-26.73C50.89,.52,15.19,13.9,9.99,33.41c-3.96,14.83,8.66,18.86,11.61,21.15"/><path class="cls-1" d="M4.5,106.24c1.12,2.07,12.4,21.88,41.21,26.73,29.98,5.05,65.68-8.33,70.88-27.84,3.96-14.83-6.61-16.7-9.56-18.99"/><path class="cls-1" d="M30.85,60.75c7.97,7.04,13.72,9.09,20.12,10.75,7.08,1.84,11.78,.32,20.88,1.47,7.52,.95,15.62,3.3,23.94,8.45"/><path class="cls-1" d="M27.74,33.56c2.54-2.51,16.89-16.18,39.38-15.79,21.85,.38,35.49,13.75,38.11,16.42"/><path class="cls-1" d="M46.27,23.24c.35,.55,7.56,11.36,20.64,10.95,12.15-.38,18.62-10.1,19.16-10.95"/><path class="cls-1" d="M21.57,104.69c2.54,2.51,16.89,16.18,39.38,15.79,21.85-.38,35.49-13.75,38.11-16.42"/><path class="cls-1" d="M40.1,115c.35-.55,7.56-11.36,20.64-10.95,12.15,.38,18.62,10.1,19.16,10.95"/></g></svg>