<?xml version="1.0" encoding="UTF-8"?><svg id="Ebene_2" xmlns="http://www.w3.org/2000/svg" viewBox="0 0 192.33 192.33"><defs><style>.cls-1{fill:#231f20;stroke:#231f20;}.cls-1,.cls-2{stroke-linecap:round;stroke-linejoin:round;stroke-width:9px;}.cls-2{fill:none;stroke:#fff;}</style></defs><g id="Layer_1"><circle class="cls-1" cx="96.17" cy="96.17" r="91.67"/><path class="cls-2" d="M153.93,58.39c-1.12-2.07-12.4-21.88-41.21-26.73-29.98-5.05-65.68,8.33-70.88,27.84-3.96,14.83,8.66,18.86,11.61,21.15"/><path class="cls-2" d="M36.35,132.33c1.12,2.07,12.4,21.88,41.21,26.73,29.98,5.05,65.68-8.33,70.88-27.84,3.96-14.83-6.61-16.7-9.56-18.99"/><path class="cls-2" d="M62.7,86.84c7.97,7.04,13.72,9.09,20.12,10.75,7.08,1.84,11.78,.32,20.88,1.47,7.52,.95,15.62,3.3,23.94,8.45"/><path class="cls-2" d="M59.59,59.65c2.54-2.51,16.89-16.18,39.38-15.79,21.85,.38,35.49,13.75,38.11,16.42"/><path class="cls-2" d="M78.12,49.33c.35,.55,7.56,11.36,20.64,10.95,12.15-.38,18.62-10.1,19.16-10.95"/><path class="cls-2" d="M53.42,130.78c2.54,2.51,16.89,16.18,39.38,15.79,21.85-.38,35.49-13.75,38.11-16.42"/><path class="cls-2" d="M71.95,141.09c.35-.55,7.56-11.36,20.64-10.95,12.15,.38,18.62,10.1,19.16,10.95"/></g></svg>