<?xml version="1.0" encoding="UTF-8"?><svg id="Ebene_1" xmlns="http://www.w3.org/2000/svg" viewBox="0 0 50 50"><defs><style>.cls-1{fill:#fff;}</style></defs><path class="cls-1" d="M41,4H9c-2.76,0-5,2.24-5,5V41c0,2.76,2.24,5,5,5H41c2.76,0,5-2.24,5-5V9c0-2.76-2.24-5-5-5ZM17,39h-6V20h6v19Zm-3-22c-1.8,0-3-1.13-3-2.53s1.2-2.47,3-2.47,2.93,1.07,3,2.47c0,1.4-1.12,2.53-3,2.53Zm25,22h-6v-10c0-2-1-4-3.5-4.04h-.08c-2.42,0-3.42,2.06-3.42,4.04v10h-6V20h6v2.56s1.93-2.56,5.81-2.56,7.19,2.73,7.19,8.26v10.74Z"/><path d="M39,28.26v10.74h-6v-10c0-2-1-4-3.5-4.04h-.08c-2.42,0-3.42,2.06-3.42,4.04v10h-6V20h6v2.56s1.93-2.56,5.81-2.56,7.19,2.73,7.19,8.26Z"/><rect x="11" y="20" width="6" height="19"/><path d="M17,14.47c0,1.4-1.12,2.53-3,2.53s-3-1.13-3-2.53,1.2-2.47,3-2.47,2.93,1.07,3,2.47Z"/></svg>